<mxfile host="65bd71144e">
    <diagram id="UKTF_bClnHtDEl5yfhx9" name="Page-1">
        <mxGraphModel dx="1072" dy="490" grid="0" gridSize="10" guides="1" tooltips="1" connect="1" arrows="1" fold="1" page="1" pageScale="1" pageWidth="3300" pageHeight="4681" math="0" shadow="0">
            <root>
                <mxCell id="0"/>
                <mxCell id="1" parent="0"/>
                <mxCell id="2" value="Certificate Authority (CA)" style="shape=hexagon;perimeter=hexagonPerimeter2;whiteSpace=wrap;html=1;fixedSize=1;" vertex="1" parent="1">
                    <mxGeometry x="535" y="110" width="120" height="80" as="geometry"/>
                </mxCell>
                <mxCell id="3" value="Key Store&lt;br&gt;&lt;br&gt;- Server CRT signed by CA" style="whiteSpace=wrap;html=1;aspect=fixed;" vertex="1" parent="1">
                    <mxGeometry x="874" y="182" width="107" height="107" as="geometry"/>
                </mxCell>
                <mxCell id="4" value="Kafka Server&lt;br&gt;kafka1.example.com" style="rounded=1;whiteSpace=wrap;html=1;" vertex="1" parent="1">
                    <mxGeometry x="856" y="391" width="120" height="60" as="geometry"/>
                </mxCell>
                <mxCell id="5" value="Kafka Client" style="rounded=1;whiteSpace=wrap;html=1;" vertex="1" parent="1">
                    <mxGeometry x="250" y="391" width="120" height="60" as="geometry"/>
                </mxCell>
                <mxCell id="6" value="" style="endArrow=classic;html=1;" edge="1" parent="1">
                    <mxGeometry width="50" height="50" relative="1" as="geometry">
                        <mxPoint x="852" y="231" as="sourcePoint"/>
                        <mxPoint x="672" y="186" as="targetPoint"/>
                    </mxGeometry>
                </mxCell>
                <mxCell id="7" value="Request to sign server.crt certificate for kafka1.example.com" style="text;html=1;strokeColor=none;fillColor=none;align=center;verticalAlign=middle;whiteSpace=wrap;rounded=0;rotation=15;" vertex="1" parent="1">
                    <mxGeometry x="658" y="228" width="211" height="30" as="geometry"/>
                </mxCell>
                <mxCell id="8" value="1" style="ellipse;whiteSpace=wrap;html=1;aspect=fixed;strokeWidth=2;fontFamily=Tahoma;spacingBottom=4;spacingRight=2;strokeColor=#d3d3d3;" vertex="1" parent="1">
                    <mxGeometry x="638" y="219" width="20" height="20" as="geometry"/>
                </mxCell>
                <mxCell id="9" value="" style="endArrow=classic;html=1;" edge="1" parent="1">
                    <mxGeometry width="50" height="50" relative="1" as="geometry">
                        <mxPoint x="680" y="158" as="sourcePoint"/>
                        <mxPoint x="854" y="206" as="targetPoint"/>
                    </mxGeometry>
                </mxCell>
                <mxCell id="11" value="Send signed certificate" style="text;html=1;strokeColor=none;fillColor=none;align=center;verticalAlign=middle;whiteSpace=wrap;rounded=0;rotation=15;" vertex="1" parent="1">
                    <mxGeometry x="690" y="141" width="168" height="30" as="geometry"/>
                </mxCell>
                <mxCell id="12" value="2" style="ellipse;whiteSpace=wrap;html=1;aspect=fixed;strokeWidth=2;fontFamily=Tahoma;spacingBottom=4;spacingRight=2;strokeColor=#d3d3d3;" vertex="1" parent="1">
                    <mxGeometry x="685" y="118" width="20" height="20" as="geometry"/>
                </mxCell>
                <mxCell id="13" value="3" style="ellipse;whiteSpace=wrap;html=1;aspect=fixed;strokeWidth=2;fontFamily=Tahoma;spacingBottom=4;spacingRight=2;strokeColor=#d3d3d3;" vertex="1" parent="1">
                    <mxGeometry x="884" y="219" width="20" height="20" as="geometry"/>
                </mxCell>
                <mxCell id="14" value="Trust Store&lt;br&gt;- CA Root Public Certificate" style="whiteSpace=wrap;html=1;aspect=fixed;" vertex="1" parent="1">
                    <mxGeometry x="247" y="176" width="115" height="115" as="geometry"/>
                </mxCell>
                <mxCell id="15" value="" style="endArrow=classic;html=1;" edge="1" parent="1">
                    <mxGeometry width="50" height="50" relative="1" as="geometry">
                        <mxPoint x="388" y="211" as="sourcePoint"/>
                        <mxPoint x="523" y="154" as="targetPoint"/>
                    </mxGeometry>
                </mxCell>
                <mxCell id="16" value="Trust using Trust Store&lt;br&gt;(any cert signed by CA)" style="text;html=1;strokeColor=none;fillColor=none;align=center;verticalAlign=middle;whiteSpace=wrap;rounded=0;rotation=-30;" vertex="1" parent="1">
                    <mxGeometry x="358" y="138" width="168" height="30" as="geometry"/>
                </mxCell>
                <mxCell id="17" value="4" style="ellipse;whiteSpace=wrap;html=1;aspect=fixed;strokeWidth=2;fontFamily=Tahoma;spacingBottom=4;spacingRight=2;strokeColor=#d3d3d3;" vertex="1" parent="1">
                    <mxGeometry x="394.5" y="110" width="20" height="20" as="geometry"/>
                </mxCell>
                <mxCell id="18" value="5" style="ellipse;whiteSpace=wrap;html=1;aspect=fixed;strokeWidth=2;fontFamily=Tahoma;spacingBottom=4;spacingRight=2;strokeColor=#d3d3d3;" vertex="1" parent="1">
                    <mxGeometry x="253" y="246" width="20" height="20" as="geometry"/>
                </mxCell>
                <mxCell id="19" value="" style="shape=curlyBracket;whiteSpace=wrap;html=1;rounded=1;labelPosition=left;verticalLabelPosition=middle;align=right;verticalAlign=middle;" vertex="1" parent="1">
                    <mxGeometry x="206" y="103" width="20" height="219" as="geometry"/>
                </mxCell>
                <mxCell id="20" value="" style="shape=singleArrow;direction=south;whiteSpace=wrap;html=1;" vertex="1" parent="1">
                    <mxGeometry x="299.5" y="320" width="21" height="49" as="geometry"/>
                </mxCell>
                <mxCell id="21" value="Certificate Setup" style="text;html=1;strokeColor=none;fillColor=none;align=center;verticalAlign=middle;whiteSpace=wrap;rounded=0;rotation=-90;" vertex="1" parent="1">
                    <mxGeometry x="124" y="197.5" width="116" height="30" as="geometry"/>
                </mxCell>
                <mxCell id="22" value="" style="shape=curlyBracket;whiteSpace=wrap;html=1;rounded=1;labelPosition=left;verticalLabelPosition=middle;align=right;verticalAlign=middle;" vertex="1" parent="1">
                    <mxGeometry x="206" y="330" width="20" height="136" as="geometry"/>
                </mxCell>
                <mxCell id="23" value="SSL Handshake" style="text;html=1;strokeColor=none;fillColor=none;align=center;verticalAlign=middle;whiteSpace=wrap;rounded=0;rotation=-90;" vertex="1" parent="1">
                    <mxGeometry x="128" y="383" width="116" height="30" as="geometry"/>
                </mxCell>
                <mxCell id="24" value="" style="endArrow=classic;html=1;" edge="1" parent="1">
                    <mxGeometry width="50" height="50" relative="1" as="geometry">
                        <mxPoint x="833" y="399" as="sourcePoint"/>
                        <mxPoint x="432" y="398.5" as="targetPoint"/>
                    </mxGeometry>
                </mxCell>
                <mxCell id="25" value="6" style="ellipse;whiteSpace=wrap;html=1;aspect=fixed;strokeWidth=2;fontFamily=Tahoma;spacingBottom=4;spacingRight=2;strokeColor=#d3d3d3;" vertex="1" parent="1">
                    <mxGeometry x="449" y="363" width="20" height="20" as="geometry"/>
                </mxCell>
                <mxCell id="26" value="Send signed SSL Sertificate" style="text;html=1;strokeColor=none;fillColor=none;align=center;verticalAlign=middle;whiteSpace=wrap;rounded=0;" vertex="1" parent="1">
                    <mxGeometry x="515" y="358" width="183" height="30" as="geometry"/>
                </mxCell>
                <mxCell id="27" value="" style="endArrow=classic;html=1;" edge="1" parent="1">
                    <mxGeometry width="50" height="50" relative="1" as="geometry">
                        <mxPoint x="441" y="406" as="sourcePoint"/>
                        <mxPoint x="441" y="451" as="targetPoint"/>
                        <Array as="points">
                            <mxPoint x="464" y="431"/>
                        </Array>
                    </mxGeometry>
                </mxCell>
                <mxCell id="29" value="7" style="ellipse;whiteSpace=wrap;html=1;aspect=fixed;strokeWidth=2;fontFamily=Tahoma;spacingBottom=4;spacingRight=2;strokeColor=#d3d3d3;" vertex="1" parent="1">
                    <mxGeometry x="472" y="431" width="20" height="20" as="geometry"/>
                </mxCell>
                <mxCell id="30" value="Verify SSL certificate from server" style="text;html=1;strokeColor=none;fillColor=none;align=center;verticalAlign=middle;whiteSpace=wrap;rounded=0;" vertex="1" parent="1">
                    <mxGeometry x="502" y="419" width="183" height="30" as="geometry"/>
                </mxCell>
                <mxCell id="31" value="" style="endArrow=classic;html=1;" edge="1" parent="1">
                    <mxGeometry width="50" height="50" relative="1" as="geometry">
                        <mxPoint x="436" y="483" as="sourcePoint"/>
                        <mxPoint x="840" y="483" as="targetPoint"/>
                    </mxGeometry>
                </mxCell>
                <mxCell id="32" value="Secure SSL encrypted communication" style="text;html=1;strokeColor=none;fillColor=none;align=center;verticalAlign=middle;whiteSpace=wrap;rounded=0;" vertex="1" parent="1">
                    <mxGeometry x="494" y="495" width="241" height="30" as="geometry"/>
                </mxCell>
                <mxCell id="33" value="8" style="ellipse;whiteSpace=wrap;html=1;aspect=fixed;strokeWidth=2;fontFamily=Tahoma;spacingBottom=4;spacingRight=2;strokeColor=#d3d3d3;" vertex="1" parent="1">
                    <mxGeometry x="464" y="500" width="20" height="20" as="geometry"/>
                </mxCell>
            </root>
        </mxGraphModel>
    </diagram>
</mxfile>